BBC Proms 2012 - 45. From the New World

Dvorak - Symphony No. 9 in E minor, 'From the New World' (45 mins)
Copland - Fanfare for the Common Man (4 mins)
Joan Tower - Fanfare for the Uncommon Woman (3 mins)
Villa-Lobos - Momoprecoce (28 mins)
Ginastera - Estancia - suite (12 mins)
Edu Lobo - Pe de Vento from Suite Popular Brasileira, orch. Nelson Ayres (3 mins)

Nelson Freire piano
Sao Paulo Symphony Orchestra
Marin Alsop conductor

Music from both American hemispheres features tonight. First the masterpiece through which the Bohemian Dvorak, resident in New York, sought to establish an American musical identity, a symphony exuding nostalgia for his own native woods and fields.

Later comes Copland's iconic Fanfare and highlights from Ginastera's best-known score. Joan Tower, whose childhood was spent partly in Bolivia, celebrates `women who take risks and are adventurous', while distinguished Brazilian pianist Nelson Freire returns to the Proms to play one of Villa-Lobos's most attractive compositions.

Video
ID                                       : 1
Format                                   : AVC
Format/Info                              : Advanced Video Codec
Format profile                           : Main@L3.0
Format settings, CABAC                   : Yes
Format settings, ReFrames                : 4 frames
Codec ID                                 : avc1
Codec ID/Info                            : Advanced Video Coding
Duration                                 : 1h 46mn
Bit rate mode                            : Constant
Bit rate                                 : 1 404 Kbps
Width                                    : 832 pixels
Height                                   : 468 pixels
Display aspect ratio                     : 16:9
Frame rate mode                          : Constant
Frame rate                               : 25.000 fps
Standard                                 : PAL
Color space                              : YUV
Chroma subsampling                       : 4:2:0
Bit depth                                : 8 bits
Scan type                                : Progressive
Bits/(Pixel*Frame)                       : 0.144
Stream size                              : 1.04 GiB (93%)

Audio
ID                                       : 2
Format                                   : AAC
Format/Info                              : Advanced Audio Codec
Format profile                           : HE-AAC / LC
Codec ID                                 : 40
Duration                                 : 1h 46mn
Bit rate mode                            : Constant
Bit rate                                 : 96.0 Kbps
Channel(s)                               : 2 channels
Channel positions                        : Front: L R
Sampling rate                            : 48.0 KHz / 24.0 KHz
Compression mode                         : Lossy
Stream size                              : 72.2 MiB (6%)
